<svg xmlns="http://www.w3.org/2000/svg" xmlns:xlink="http://www.w3.org/1999/xlink" version="1.1" id="Your_Icon" x="0px" y="0px" width="100px" height="100px" viewBox="5.0 -10.0 100.0 135.0" enable-background="new 0 0 100 100" xml:space="preserve">
<circle fill="#000000" cx="25.686" cy="77.131" r="1.213"/>
<circle fill="#000000" cx="25.686" cy="81.173" r="1.213"/>
<circle fill="#000000" cx="23.665" cy="75.109" r="1.213"/>
<circle fill="#000000" cx="21.643" cy="77.131" r="1.213"/>
<circle fill="#000000" cx="19.622" cy="83.194" r="1.213"/>
<circle fill="#000000" cx="21.643" cy="81.173" r="1.213"/>
<circle fill="#000000" cx="19.622" cy="79.152" r="1.213"/>
<circle fill="#000000" cx="23.664" cy="79.152" r="1.213"/>
<path fill="#000000" d="M31.553,67.264c-0.002-0.037-0.007-0.073-0.011-0.11c-0.001-0.011-0.002-0.023-0.004-0.035  c-0.005-0.036-0.011-0.071-0.018-0.106c-0.002-0.012-0.004-0.024-0.006-0.036c-0.007-0.035-0.016-0.069-0.024-0.103  c-0.003-0.012-0.005-0.025-0.009-0.037c-0.008-0.031-0.018-0.061-0.028-0.092c-0.005-0.015-0.009-0.03-0.014-0.045  c-0.01-0.028-0.021-0.056-0.032-0.083c-0.006-0.016-0.012-0.033-0.019-0.05c-0.011-0.026-0.023-0.051-0.034-0.076  c-0.008-0.018-0.016-0.036-0.024-0.054c-0.011-0.023-0.024-0.045-0.036-0.068c-0.01-0.019-0.02-0.039-0.031-0.057  c-0.012-0.02-0.025-0.04-0.037-0.06c-0.013-0.02-0.025-0.041-0.038-0.061c-0.012-0.018-0.025-0.035-0.037-0.052  c-0.015-0.021-0.03-0.043-0.046-0.063c-0.012-0.016-0.026-0.031-0.038-0.047c-0.017-0.021-0.034-0.043-0.052-0.064  c-0.012-0.014-0.026-0.028-0.039-0.042c-0.02-0.021-0.039-0.042-0.059-0.063c-0.012-0.012-0.026-0.024-0.038-0.036  c-0.022-0.021-0.044-0.042-0.066-0.062c-0.013-0.011-0.026-0.021-0.039-0.032c-0.024-0.02-0.048-0.04-0.073-0.06  c-0.013-0.01-0.026-0.019-0.04-0.029c-0.026-0.019-0.052-0.038-0.079-0.056c-0.013-0.009-0.027-0.017-0.04-0.025  c-0.025-0.016-0.05-0.032-0.076-0.048c-0.003-0.002-0.006-0.003-0.008-0.004c-0.001-0.001-0.003-0.002-0.004-0.003L16.887,57.75  c-0.673-0.385-1.5-0.385-2.173,0L1.145,65.505c-0.003,0.001-0.005,0.003-0.007,0.005c-0.002,0.001-0.003,0.002-0.005,0.003  c-0.015,0.009-0.029,0.018-0.044,0.027c-0.025,0.016-0.051,0.031-0.076,0.047c-0.016,0.01-0.03,0.022-0.046,0.032  c-0.024,0.017-0.049,0.034-0.072,0.052c-0.015,0.011-0.029,0.024-0.043,0.035c-0.023,0.019-0.046,0.037-0.068,0.056  c-0.014,0.012-0.027,0.025-0.041,0.038C0.722,65.82,0.7,65.84,0.68,65.861c-0.013,0.013-0.025,0.027-0.038,0.04  c-0.02,0.021-0.04,0.042-0.059,0.064c-0.012,0.014-0.023,0.029-0.035,0.043c-0.019,0.022-0.038,0.044-0.055,0.067  c-0.011,0.015-0.021,0.03-0.032,0.045c-0.017,0.023-0.034,0.047-0.05,0.071c-0.01,0.015-0.019,0.031-0.029,0.046  c-0.016,0.025-0.031,0.049-0.046,0.074c-0.009,0.016-0.017,0.032-0.026,0.048c-0.014,0.026-0.028,0.051-0.041,0.078  c-0.008,0.016-0.015,0.032-0.022,0.049c-0.013,0.027-0.025,0.053-0.037,0.081c-0.007,0.017-0.013,0.034-0.02,0.052  c-0.011,0.027-0.021,0.054-0.031,0.081c-0.006,0.017-0.011,0.035-0.016,0.053c-0.009,0.028-0.018,0.055-0.025,0.083  c-0.005,0.018-0.008,0.036-0.013,0.054c-0.007,0.029-0.014,0.057-0.02,0.085c-0.004,0.02-0.007,0.04-0.01,0.06  c-0.005,0.027-0.01,0.054-0.014,0.082c-0.003,0.024-0.005,0.048-0.007,0.073c-0.002,0.024-0.005,0.047-0.007,0.071  c-0.002,0.037-0.003,0.074-0.004,0.111c0,0.012-0.001,0.024-0.001,0.035c0,0,0,0,0,0v0v15.592c0,0.785,0.421,1.511,1.102,1.901  l13.569,7.763c0.337,0.193,0.712,0.289,1.088,0.289c0.38,0,0.759-0.099,1.099-0.295c0.028-0.016,0.055-0.034,0.082-0.051  l13.475-7.709c0.682-0.39,1.102-1.115,1.102-1.901V67.41C31.558,67.361,31.556,67.312,31.553,67.264z M12.514,70.764h6.572  l-1.061,0.606h-4.451L12.514,70.764z M21.562,69.349H11.495h-1.455l-1.06-0.606h2.516h11.128L21.562,69.349z M14.916,62.679h1.767  l1.06,0.606h-3.888L14.916,62.679z M11.379,64.7h0.115h8.723l1.061,0.606h-9.783h-1.176L11.379,64.7z M7.843,66.721h3.652h12.212  v-0.026l1.106,0.633h-1.106H11.495H6.782L7.843,66.721z M4.421,71.181l9.189,5.256v10.548l-9.189-5.258V71.181z M27.179,74.019  c-0.405,0.196-0.684,0.61-0.684,1.09c0,0.48,0.28,0.894,0.684,1.09v1.862c-0.405,0.196-0.684,0.61-0.684,1.09  c0,0.48,0.28,0.894,0.684,1.09v1.482l-2.312,1.322c-0.073-0.6-0.583-1.065-1.203-1.065c-0.67,0-1.213,0.543-1.213,1.213  c0,0.392,0.187,0.74,0.476,0.962l-0.402,0.23c-0.221-0.235-0.534-0.383-0.883-0.383c-0.67,0-1.213,0.543-1.213,1.213  c0,0.118,0.018,0.233,0.049,0.341l-0.82,0.47c-0.013,0-0.025-0.002-0.037-0.002c-0.46,0-0.859,0.256-1.065,0.633l-0.567,0.324  v-0.618c0.479-0.162,0.824-0.614,0.824-1.148c0-0.534-0.345-0.986-0.824-1.148v-1.747c0.479-0.162,0.824-0.614,0.824-1.148  c0-0.533-0.345-0.986-0.824-1.148v-1.747c0.479-0.162,0.824-0.614,0.824-1.148c0-0.369-0.166-0.7-0.427-0.922l0.395-0.226  c0.218,0.21,0.514,0.339,0.84,0.339c0.67,0,1.213-0.543,1.213-1.213c0-0.097-0.013-0.19-0.034-0.28l0.932-0.533  c0.376-0.028,0.704-0.226,0.907-0.519l1.901-1.086c-0.043,0.125-0.068,0.258-0.068,0.397c0,0.67,0.543,1.213,1.213,1.213  c0.67,0,1.212-0.543,1.212-1.213c0-0.587-0.418-1.077-0.972-1.189l0.658-0.376c0.113,0.278,0.326,0.503,0.595,0.634V74.019z"/>
<circle fill="#000000" cx="58.026" cy="52.875" r="1.213"/>
<circle fill="#000000" cx="60.047" cy="58.939" r="1.213"/>
<circle fill="#000000" cx="58.026" cy="60.96" r="1.213"/>
<circle fill="#000000" cx="58.026" cy="56.918" r="1.213"/>
<circle fill="#000000" cx="60.047" cy="54.897" r="1.213"/>
<circle fill="#000000" cx="60.047" cy="67.024" r="1.213"/>
<circle fill="#000000" cx="58.026" cy="69.045" r="1.213"/>
<circle fill="#000000" cx="58.026" cy="65.003" r="1.213"/>
<circle fill="#000000" cx="60.047" cy="62.982" r="1.213"/>
<circle fill="#000000" cx="60.047" cy="75.109" r="1.213"/>
<circle fill="#000000" cx="58.026" cy="77.131" r="1.213"/>
<circle fill="#000000" cx="58.026" cy="73.088" r="1.213"/>
<circle fill="#000000" cx="60.047" cy="71.067" r="1.213"/>
<circle fill="#000000" cx="58.026" cy="81.173" r="1.213"/>
<circle fill="#000000" cx="60.047" cy="79.152" r="1.213"/>
<circle fill="#000000" cx="56.005" cy="58.939" r="1.213"/>
<circle fill="#000000" cx="53.983" cy="60.96" r="1.213"/>
<circle fill="#000000" cx="53.983" cy="56.918" r="1.213"/>
<circle fill="#000000" cx="56.005" cy="54.897" r="1.213"/>
<circle fill="#000000" cx="56.005" cy="67.024" r="1.213"/>
<circle fill="#000000" cx="53.983" cy="69.045" r="1.213"/>
<circle fill="#000000" cx="53.983" cy="65.003" r="1.213"/>
<circle fill="#000000" cx="56.005" cy="62.982" r="1.213"/>
<circle fill="#000000" cx="56.005" cy="75.109" r="1.213"/>
<circle fill="#000000" cx="53.983" cy="77.131" r="1.213"/>
<circle fill="#000000" cx="53.983" cy="73.088" r="1.213"/>
<circle fill="#000000" cx="56.005" cy="71.067" r="1.213"/>
<circle fill="#000000" cx="56.005" cy="83.194" r="1.213"/>
<circle fill="#000000" cx="53.983" cy="81.173" r="1.213"/>
<circle fill="#000000" cx="56.005" cy="79.152" r="1.213"/>
<path fill="#000000" d="M65.774,45.538c-0.003-0.04-0.007-0.079-0.012-0.119c-0.001-0.008-0.001-0.017-0.003-0.025  c-0.005-0.041-0.012-0.081-0.02-0.122c-0.001-0.007-0.002-0.014-0.003-0.02c-0.008-0.039-0.017-0.077-0.027-0.115  c-0.002-0.008-0.004-0.016-0.006-0.024c-0.01-0.035-0.021-0.07-0.032-0.105c-0.003-0.01-0.006-0.021-0.01-0.031  c-0.011-0.033-0.024-0.065-0.037-0.097c-0.005-0.012-0.009-0.024-0.014-0.036c-0.012-0.029-0.026-0.058-0.039-0.086  c-0.007-0.014-0.013-0.029-0.02-0.043c-0.013-0.026-0.027-0.051-0.041-0.077c-0.009-0.016-0.017-0.032-0.026-0.048  c-0.013-0.023-0.028-0.045-0.042-0.068c-0.011-0.018-0.022-0.036-0.033-0.053c-0.013-0.02-0.028-0.039-0.042-0.059  c-0.014-0.019-0.027-0.038-0.041-0.057c-0.013-0.017-0.027-0.034-0.041-0.051c-0.016-0.02-0.032-0.04-0.049-0.06  c-0.013-0.014-0.026-0.028-0.039-0.042c-0.019-0.021-0.039-0.042-0.059-0.063c-0.012-0.012-0.025-0.023-0.037-0.035  c-0.023-0.022-0.045-0.043-0.068-0.064c-0.011-0.01-0.023-0.019-0.035-0.029c-0.025-0.021-0.051-0.043-0.077-0.063  c-0.01-0.008-0.021-0.015-0.032-0.023c-0.028-0.021-0.057-0.042-0.086-0.062c-0.009-0.006-0.019-0.012-0.029-0.018  c-0.029-0.019-0.057-0.037-0.087-0.054c-0.003-0.002-0.006-0.003-0.01-0.005c-0.001-0.001-0.002-0.001-0.003-0.002l-13.569-7.759  c-0.673-0.385-1.5-0.385-2.173,0l-13.569,7.755c-0.003,0.002-0.006,0.004-0.009,0.005c-0.001,0.001-0.002,0.001-0.003,0.002  c-0.011,0.007-0.022,0.014-0.033,0.02c-0.029,0.018-0.059,0.036-0.088,0.055c-0.013,0.009-0.025,0.018-0.038,0.027  c-0.027,0.019-0.054,0.037-0.08,0.057c-0.013,0.01-0.026,0.021-0.039,0.032c-0.024,0.02-0.049,0.039-0.072,0.06  c-0.013,0.012-0.026,0.024-0.039,0.037c-0.022,0.02-0.044,0.04-0.065,0.061c-0.013,0.013-0.026,0.028-0.039,0.041  c-0.02,0.021-0.04,0.041-0.058,0.063c-0.013,0.015-0.025,0.03-0.037,0.045c-0.018,0.022-0.036,0.043-0.053,0.065  c-0.012,0.016-0.023,0.032-0.034,0.048c-0.016,0.022-0.033,0.045-0.048,0.068c-0.011,0.016-0.021,0.033-0.031,0.05  c-0.015,0.023-0.03,0.046-0.044,0.07c-0.01,0.017-0.019,0.034-0.028,0.051c-0.013,0.024-0.027,0.049-0.039,0.074  c-0.009,0.017-0.016,0.035-0.024,0.053c-0.012,0.025-0.024,0.051-0.035,0.077c-0.007,0.018-0.014,0.037-0.021,0.055  c-0.01,0.026-0.021,0.052-0.029,0.078c-0.006,0.018-0.011,0.037-0.017,0.055c-0.008,0.027-0.017,0.054-0.025,0.081  c-0.005,0.018-0.009,0.037-0.013,0.056c-0.007,0.028-0.014,0.056-0.02,0.084c-0.004,0.02-0.007,0.04-0.01,0.06  c-0.005,0.027-0.01,0.054-0.014,0.082c-0.003,0.024-0.005,0.048-0.007,0.072c-0.002,0.024-0.006,0.048-0.007,0.072  c-0.003,0.037-0.003,0.074-0.004,0.11c0,0.012-0.001,0.024-0.001,0.035v0v0v37.318c0,0.785,0.421,1.511,1.102,1.9l13.569,7.763  c0.337,0.193,0.712,0.289,1.087,0.289c0.38,0,0.759-0.099,1.099-0.295c0.028-0.016,0.055-0.034,0.083-0.052l13.475-7.709  c0.682-0.39,1.102-1.115,1.102-1.9v-37.31C65.779,45.635,65.777,45.587,65.774,45.538z M52.246,49.644h-4.451l-1.06-0.606h6.572  L52.246,49.644z M55.783,47.623H45.716H44.26l-1.06-0.606h2.516h11.128L55.783,47.623z M49.137,40.953h1.767l1.06,0.606h-3.888  L49.137,40.953z M45.6,42.974h0.115h8.723l1.06,0.606h-9.783h-1.176L45.6,42.974z M42.063,44.995h3.652h12.212v-0.026l1.106,0.633  h-1.106H45.716h-4.713L42.063,44.995z M38.642,49.455l9.19,5.256v32.274l-9.19-5.258V49.455z M61.4,53.887v2.02  c-0.328,0.217-0.544,0.589-0.544,1.011c0,0.422,0.216,0.794,0.544,1.011v2.02c-0.328,0.217-0.544,0.589-0.544,1.011  c0,0.423,0.216,0.794,0.544,1.011v2.02c-0.328,0.217-0.544,0.589-0.544,1.011c0,0.423,0.216,0.794,0.544,1.011v2.02  c-0.328,0.217-0.544,0.589-0.544,1.011c0,0.423,0.216,0.794,0.544,1.011v2.02c-0.328,0.217-0.544,0.589-0.544,1.011  c0,0.423,0.216,0.794,0.544,1.011v2.02c-0.328,0.217-0.544,0.589-0.544,1.011c0,0.422,0.216,0.794,0.544,1.011v2.02  c-0.328,0.217-0.544,0.589-0.544,1.011c0,0.272,0.09,0.522,0.241,0.724l-0.439,0.251c-0.179-0.105-0.388-0.166-0.611-0.166  c-0.669,0-1.211,0.542-1.212,1.21l-3.642,2.084c0.001-0.02,0.003-0.039,0.003-0.059c0-0.67-0.543-1.213-1.213-1.213  c-0.67,0-1.213,0.543-1.213,1.213c0,0.466,0.263,0.871,0.65,1.074l-0.458,0.262c-0.174-0.253-0.441-0.437-0.751-0.502v-1.668  c0.55-0.115,0.964-0.602,0.964-1.187c0-0.584-0.414-1.072-0.964-1.187v-1.668c0.55-0.115,0.964-0.603,0.964-1.187  c0-0.584-0.414-1.072-0.964-1.187v-1.668c0.55-0.115,0.964-0.603,0.964-1.187c0-0.585-0.414-1.072-0.964-1.187v-1.668  c0.55-0.115,0.964-0.603,0.964-1.187c0-0.584-0.414-1.072-0.964-1.187v-1.668c0.55-0.115,0.964-0.603,0.964-1.187  c0-0.585-0.414-1.072-0.964-1.187v-1.668c0.55-0.115,0.964-0.603,0.964-1.187c0-0.584-0.414-1.072-0.964-1.187v-1.668  c0.55-0.115,0.964-0.603,0.964-1.187c0-0.585-0.414-1.072-0.964-1.187v-1.668c0.55-0.115,0.964-0.603,0.964-1.187  c0-0.233-0.067-0.45-0.181-0.635l0.492-0.281c0.152,0.069,0.32,0.108,0.497,0.108c0.625,0,1.139-0.473,1.205-1.081l3.649-2.086  c0.035,0.638,0.562,1.145,1.209,1.145c0.67,0,1.213-0.543,1.213-1.213c0-0.42-0.214-0.791-0.539-1.008l0.679-0.388v2.407  c-0.328,0.217-0.544,0.589-0.544,1.011C60.856,53.298,61.072,53.67,61.4,53.887z"/>
<path fill="#000000" d="M100,25.791c0-0.786-0.421-1.511-1.103-1.901l-13.569-7.759c-0.673-0.385-1.5-0.385-2.173,0l-13.569,7.755  c-0.682,0.39-1.103,1.115-1.103,1.901c0,0.003,0,0.006,0,0.01c0,0.003,0,0.005,0,0.008v57.194c0,0.785,0.421,1.511,1.102,1.901  l13.569,7.763c0.337,0.193,0.712,0.289,1.088,0.289c0.379,0,0.759-0.099,1.098-0.296c0.02-0.012,0.04-0.025,0.06-0.037l13.48-7.545  c0.692-0.387,1.12-1.118,1.12-1.911V25.977c0-0.031-0.002-0.062-0.003-0.093C99.998,25.853,100,25.822,100,25.791z M86.469,29.751  h-4.453l-1.06-0.606h6.574L86.469,29.751z M90.006,27.73H79.937h-1.455l-1.06-0.606h2.516h11.13L90.006,27.73z M83.358,21.059h1.767  l1.06,0.606h-3.888L83.358,21.059z M79.821,23.081h0.115h8.723l1.06,0.606h-9.783H78.76L79.821,23.081z M76.284,25.102h3.652h12.212  v-0.026l1.106,0.633h-1.106H79.937h-4.713L76.284,25.102z M72.863,29.62l9.189,5.371v51.994l-9.189-5.258V29.62z M95.621,81.879  l-0.527,0.295c0.315-0.216,0.523-0.578,0.527-0.989V81.879z M95.621,32.651c-0.007-0.664-0.546-1.201-1.212-1.201  c-0.67,0-1.213,0.543-1.213,1.213c0,0.67,0.543,1.213,1.213,1.213c0.666,0,1.205-0.537,1.212-1.201v1.108  c-0.247,0.222-0.403,0.543-0.403,0.901c0,0.358,0.156,0.679,0.403,0.901v1.108c-0.007-0.664-0.546-1.201-1.212-1.201  c-0.67,0-1.213,0.543-1.213,1.213c0,0.67,0.543,1.213,1.213,1.213c0.666,0,1.205-0.537,1.212-1.201v1.108  c-0.247,0.222-0.403,0.543-0.403,0.902c0,0.358,0.156,0.679,0.403,0.902v1.108c-0.007-0.664-0.546-1.201-1.212-1.201  c-0.67,0-1.213,0.543-1.213,1.213c0,0.67,0.543,1.213,1.213,1.213c0.666,0,1.205-0.537,1.212-1.201v1.108  c-0.247,0.222-0.403,0.543-0.403,0.901c0,0.358,0.156,0.679,0.403,0.901v1.108c-0.007-0.664-0.546-1.201-1.212-1.201  c-0.67,0-1.213,0.543-1.213,1.213c0,0.67,0.543,1.213,1.213,1.213c0.666,0,1.205-0.537,1.212-1.201v1.108  c-0.247,0.222-0.403,0.543-0.403,0.901c0,0.358,0.156,0.679,0.403,0.902v1.108c-0.007-0.664-0.546-1.201-1.212-1.201  c-0.67,0-1.213,0.543-1.213,1.213c0,0.67,0.543,1.213,1.213,1.213c0.666,0,1.205-0.537,1.212-1.201v1.108  c-0.247,0.222-0.403,0.543-0.403,0.901c0,0.358,0.156,0.68,0.403,0.902v1.108c-0.007-0.664-0.546-1.201-1.212-1.201  c-0.67,0-1.213,0.543-1.213,1.213c0,0.67,0.543,1.213,1.213,1.213c0.666,0,1.205-0.537,1.212-1.201v1.108  c-0.247,0.222-0.403,0.543-0.403,0.901c0,0.358,0.156,0.679,0.403,0.901v1.108c-0.007-0.664-0.546-1.201-1.212-1.201  c-0.67,0-1.213,0.543-1.213,1.213c0,0.67,0.543,1.213,1.213,1.213c0.666,0,1.205-0.537,1.212-1.201v1.108  c-0.247,0.222-0.403,0.543-0.403,0.902c0,0.358,0.156,0.679,0.403,0.901v1.108c-0.007-0.664-0.546-1.201-1.212-1.201  c-0.67,0-1.213,0.543-1.213,1.213c0,0.67,0.543,1.213,1.213,1.213c0.666,0,1.205-0.537,1.212-1.201v1.108  c-0.247,0.222-0.403,0.543-0.403,0.901c0,0.358,0.156,0.679,0.403,0.901v1.108c-0.007-0.664-0.546-1.201-1.212-1.201  c-0.67,0-1.213,0.543-1.213,1.213c0,0.67,0.543,1.213,1.213,1.213c0.666,0,1.205-0.537,1.212-1.201v1.108  c-0.247,0.222-0.403,0.543-0.403,0.902c0,0.358,0.156,0.679,0.403,0.901v1.108c-0.007-0.664-0.546-1.201-1.212-1.201  c-0.67,0-1.213,0.543-1.213,1.213c0,0.67,0.543,1.213,1.213,1.213c0.666,0,1.205-0.537,1.212-1.201v1.108  c-0.247,0.222-0.403,0.543-0.403,0.901c0,0.358,0.156,0.679,0.403,0.901v1.108c-0.007-0.664-0.546-1.201-1.212-1.201  c-0.67,0-1.213,0.543-1.213,1.213c0,0.67,0.543,1.213,1.213,1.213c0.666,0,1.205-0.537,1.212-1.201v1.108  c-0.247,0.222-0.403,0.543-0.403,0.901c0,0.358,0.156,0.679,0.403,0.902v1.108c-0.007-0.664-0.546-1.201-1.212-1.201  c-0.67,0-1.213,0.543-1.213,1.213c0,0.67,0.543,1.213,1.213,1.213c0.666,0,1.205-0.537,1.212-1.201v1.108  c-0.247,0.222-0.403,0.543-0.403,0.901c0,0.358,0.156,0.68,0.403,0.902v1.108c-0.007-0.664-0.546-1.201-1.212-1.201  c-0.67,0-1.213,0.543-1.213,1.213c0,0.67,0.543,1.213,1.213,1.213c0.178,0,0.347-0.039,0.499-0.108l-1.322,0.74  c-0.086-0.586-0.589-1.036-1.198-1.036c-0.67,0-1.213,0.543-1.213,1.213c0,0.373,0.169,0.707,0.434,0.93l-0.398,0.223  c-0.218-0.212-0.516-0.344-0.845-0.344c-0.67,0-1.213,0.543-1.213,1.213c0,0.092,0.011,0.18,0.03,0.266l-0.988,0.553  c-0.323,0.04-0.606,0.206-0.799,0.447l-0.966,0.54v-0.599c0.619-0.055,1.105-0.574,1.105-1.207c0-0.633-0.486-1.153-1.105-1.207  v-1.628c0.619-0.055,1.105-0.574,1.105-1.207c0-0.633-0.486-1.153-1.105-1.207v-1.628c0.619-0.055,1.105-0.574,1.105-1.207  c0-0.633-0.486-1.153-1.105-1.207v-1.628c0.619-0.055,1.105-0.574,1.105-1.207c0-0.633-0.486-1.153-1.105-1.207v-1.628  c0.619-0.055,1.105-0.574,1.105-1.207c0-0.633-0.486-1.153-1.105-1.207V66.21c0.619-0.055,1.105-0.574,1.105-1.207  c0-0.633-0.486-1.153-1.105-1.207v-1.628c0.619-0.055,1.105-0.574,1.105-1.207c0-0.633-0.486-1.153-1.105-1.207v-1.628  c0.619-0.055,1.105-0.574,1.105-1.207c0-0.633-0.486-1.153-1.105-1.207v-1.628c0.619-0.055,1.105-0.574,1.105-1.207  c0-0.633-0.486-1.153-1.105-1.207V50.04c0.619-0.055,1.105-0.574,1.105-1.207c0-0.633-0.486-1.153-1.105-1.207v-1.628  c0.619-0.055,1.105-0.574,1.105-1.207c0-0.633-0.486-1.153-1.105-1.207v-1.628c0.619-0.055,1.105-0.574,1.105-1.207  c0-0.633-0.486-1.153-1.105-1.207v-1.628c0.619-0.055,1.105-0.574,1.105-1.207c0-0.633-0.486-1.153-1.105-1.207v-0.497l0.705-0.403  c-0.002,0.029-0.004,0.057-0.004,0.086c0,0.67,0.543,1.213,1.213,1.213c0.669,0,1.213-0.543,1.213-1.213  c0-0.476-0.275-0.886-0.673-1.085l0.47-0.268c0.217,0.328,0.589,0.545,1.012,0.545c0.67,0,1.213-0.543,1.213-1.213  c0-0.191-0.046-0.371-0.124-0.532l0.577-0.33c0.113,0.035,0.232,0.053,0.356,0.053c0.572,0,1.051-0.397,1.178-0.93l2.025-1.157  c-0.23,0.221-0.374,0.531-0.374,0.874c0,0.358,0.156,0.679,0.403,0.902V32.651z"/>
<circle fill="#000000" cx="92.387" cy="34.684" r="1.213"/>
<circle fill="#000000" cx="90.366" cy="36.705" r="1.213"/>
<circle fill="#000000" cx="92.387" cy="42.769" r="1.213"/>
<circle fill="#000000" cx="90.366" cy="44.79" r="1.213"/>
<circle fill="#000000" cx="90.366" cy="40.748" r="1.213"/>
<circle fill="#000000" cx="92.387" cy="38.727" r="1.213"/>
<circle fill="#000000" cx="92.387" cy="50.854" r="1.213"/>
<circle fill="#000000" cx="90.366" cy="52.875" r="1.213"/>
<circle fill="#000000" cx="90.366" cy="48.833" r="1.213"/>
<circle fill="#000000" cx="92.387" cy="46.812" r="1.213"/>
<circle fill="#000000" cx="92.387" cy="58.939" r="1.213"/>
<circle fill="#000000" cx="90.366" cy="60.96" r="1.213"/>
<circle fill="#000000" cx="90.366" cy="56.918" r="1.213"/>
<circle fill="#000000" cx="92.387" cy="54.897" r="1.213"/>
<circle fill="#000000" cx="92.387" cy="67.024" r="1.213"/>
<circle fill="#000000" cx="90.366" cy="69.045" r="1.213"/>
<circle fill="#000000" cx="90.366" cy="65.003" r="1.213"/>
<circle fill="#000000" cx="92.387" cy="62.982" r="1.213"/>
<circle fill="#000000" cx="92.387" cy="75.109" r="1.213"/>
<circle fill="#000000" cx="90.366" cy="77.131" r="1.213"/>
<circle fill="#000000" cx="90.366" cy="73.088" r="1.213"/>
<circle fill="#000000" cx="92.387" cy="71.067" r="1.213"/>
<circle fill="#000000" cx="90.366" cy="81.173" r="1.213"/>
<circle fill="#000000" cx="92.387" cy="79.152" r="1.213"/>
<circle fill="#000000" cx="88.345" cy="42.769" r="1.213"/>
<circle fill="#000000" cx="88.345" cy="38.727" r="1.213"/>
<circle fill="#000000" cx="88.345" cy="50.854" r="1.213"/>
<circle fill="#000000" cx="88.345" cy="46.812" r="1.213"/>
<circle fill="#000000" cx="88.345" cy="58.939" r="1.213"/>
<circle fill="#000000" cx="88.345" cy="54.897" r="1.213"/>
<circle fill="#000000" cx="88.345" cy="67.024" r="1.213"/>
<circle fill="#000000" cx="88.345" cy="62.982" r="1.213"/>
<circle fill="#000000" cx="88.345" cy="75.109" r="1.213"/>
<circle fill="#000000" cx="88.345" cy="71.067" r="1.213"/>
<circle fill="#000000" cx="88.345" cy="83.194" r="1.213"/>
<circle fill="#000000" cx="88.345" cy="79.152" r="1.213"/>
<text x="0.0" y="117.5" font-size="5.0" font-weight="bold" font-family="Helvetica Neue, Helvetica, Arial-Unicode, Arial, Sans-serif" fill="#000000">Created by Piotrek Chuchla</text><text x="0.0" y="122.5" font-size="5.0" font-weight="bold" font-family="Helvetica Neue, Helvetica, Arial-Unicode, Arial, Sans-serif" fill="#000000">from the Noun Project</text></svg>